<svg class="jsx-2263963463 artboard"><svg viewBox="-220.7229580573952 0 441.4459161147904 100" xmlns="http://www.w3.org/2000/svg" xmlns:xlink="http://www.w3.org/1999/xlink" version="1.1" class="jsx-2263963463 artboard-inner" style="width: 290px; height: 65.6932px; max-height: 100%;"><g transform="translate(-227.56622516556297 77.2626931567329) scale(1.53298994358597)" fill="#232323"><g id="line1"><path d="M4.680-36.000L4.680 14.256L10.080 14.256L10.080-36.000ZM10.296-49.104L4.464-49.104L4.464-42.048L10.296-42.048Z"></path><path d="M45.036 0L50.436 0L50.436-36.000L45.036-36.000L45.036-15.264C45.036-12.048 43.980-9.408 41.868-7.344C39.756-5.328 37.188-4.320 34.164-4.320C31.188-4.320 28.764-5.304 26.892-7.272C25.020-9.240 24.084-11.880 24.084-15.192L24.084-36.000L18.684-36.000L18.684-15.048C18.684-10.248 20.172-6.384 23.148-3.456C24.444-2.112 25.956-1.104 27.684-0.432C29.412 0.240 31.476 0.576 33.876 0.576C36.276 0.576 38.412-0.024 40.284-1.224C42.156-2.424 43.740-3.888 45.036-5.616Z"></path><path d="M64.800-36.000L59.400-36.000L59.400 0L64.800 0L64.800-20.736C64.800-23.952 65.856-26.592 67.968-28.656C70.080-30.672 72.648-31.680 75.672-31.680C78.648-31.680 81.072-30.696 82.944-28.728C84.816-26.760 85.752-24.120 85.752-20.808L85.752 0L91.152 0L91.152-20.952C91.152-25.752 89.664-29.616 86.688-32.544C85.392-33.888 83.880-34.896 82.152-35.568C80.424-36.240 78.360-36.576 75.960-36.576C73.560-36.576 71.424-35.976 69.552-34.776C67.680-33.576 66.096-32.112 64.800-30.384Z"></path><path d="M116.388-4.320C112.164-4.320 108.852-5.664 106.452-8.352C104.100-10.944 102.924-14.160 102.924-18.000C102.924-21.840 104.100-25.056 106.452-27.648C107.556-28.896 108.912-29.880 110.520-30.600C112.128-31.320 114.084-31.680 116.388-31.680C118.692-31.680 120.732-31.032 122.508-29.736C124.284-28.440 125.580-26.760 126.396-24.696L132.228-24.696C131.124-28.248 129.108-31.104 126.180-33.264C123.108-35.472 119.460-36.576 115.236-36.576C109.956-36.576 105.660-34.776 102.348-31.176C99.132-27.672 97.524-23.280 97.524-18.000C97.524-12.720 99.132-8.328 102.348-4.824C105.660-1.224 109.956 0.576 115.236 0.576C119.460 0.576 123.108-0.528 126.180-2.736C129.108-4.896 131.124-7.752 132.228-11.304L126.396-11.304C125.580-9.240 124.284-7.560 122.508-6.264C120.732-4.968 118.692-4.320 116.388-4.320Z"></path><path d="M143.928-50.400L138.528-50.400L138.528 0L143.928 0L143.928-20.736C143.928-23.952 144.984-26.592 147.096-28.656C149.208-30.672 151.776-31.680 154.800-31.680C157.776-31.680 160.200-30.696 162.072-28.728C163.944-26.760 164.880-24.120 164.880-20.808L164.880 0L170.280 0L170.280-20.952C170.280-25.752 168.792-29.616 165.816-32.544C164.520-33.888 163.008-34.896 161.280-35.568C159.552-36.240 157.488-36.576 155.088-36.576C152.688-36.576 150.552-35.976 148.680-34.776C146.808-33.576 145.224-32.112 143.928-30.384Z"></path><path d="M194.940-4.320C191.388-4.320 188.460-5.424 186.156-7.632C183.900-9.792 182.580-12.528 182.196-15.840L212.364-15.840L212.364-18.000C212.364-23.328 210.780-27.720 207.612-31.176C204.252-34.776 199.884-36.576 194.508-36.576C189.132-36.576 184.764-34.776 181.404-31.176C178.236-27.720 176.652-23.328 176.652-18.000C176.652-12.720 178.308-8.328 181.620-4.824C185.028-1.224 189.444 0.576 194.868 0.576C199.140 0.576 202.632-0.432 205.344-2.448C208.056-4.464 210.036-7.104 211.284-10.368L205.380-10.368C203.268-6.336 199.788-4.320 194.940-4.320ZM194.508-31.680C197.820-31.680 200.604-30.648 202.860-28.584C204.972-26.616 206.268-24.048 206.748-20.880L182.268-20.880C182.748-24.048 184.044-26.616 186.156-28.584C188.412-30.648 191.196-31.680 194.508-31.680Z"></path><path d="M223.992-36.000L218.592-36.000L218.592 0L223.992 0L223.992-20.736C223.992-23.952 225.048-26.592 227.160-28.656C229.272-30.672 231.840-31.680 234.864-31.680C237.840-31.680 240.264-30.696 242.136-28.728C244.008-26.760 244.944-24.120 244.944-20.808L244.944 0L250.344 0L250.344-20.952C250.344-25.752 248.856-29.616 245.880-32.544C244.584-33.888 243.072-34.896 241.344-35.568C239.616-36.240 237.552-36.576 235.152-36.576C232.752-36.576 230.616-35.976 228.744-34.776C226.872-33.576 225.288-32.112 223.992-30.384Z"></path><path d="M287.028-30.240C284.148-34.464 279.984-36.576 274.536-36.576C269.088-36.576 264.732-34.800 261.468-31.248C258.300-27.792 256.716-23.472 256.716-18.288C256.716-13.104 258.300-8.784 261.468-5.328C264.732-1.776 268.956 0 274.140 0C279.804 0 284.100-2.136 287.028-6.408L287.028-1.440C287.028 2.304 286.092 5.136 284.220 7.056C282.348 8.976 279.324 9.936 275.148 9.936C269.676 9.936 266.172 8.064 264.636 4.320L258.660 4.320C259.668 7.488 261.576 10.032 264.384 11.952C267.192 13.872 271.092 14.832 276.084 14.832C281.076 14.832 285.048 13.476 288.000 10.764C290.952 8.052 292.428 4.104 292.428-1.080L292.428-36.000L287.028-36.000ZM274.860-4.896C270.972-4.896 267.852-6.192 265.500-8.784C263.244-11.328 262.116-14.496 262.116-18.288C262.116-22.080 263.244-25.248 265.500-27.792C267.852-30.384 270.972-31.680 274.860-31.680C278.652-31.680 281.724-30.384 284.076-27.792C286.236-25.296 287.316-22.128 287.316-18.288C287.316-14.448 286.236-11.280 284.076-8.784C282.972-7.584 281.652-6.636 280.116-5.940C278.580-5.244 276.828-4.896 274.860-4.896Z"></path></g></g></svg></svg>